<?xml version="1.0" encoding="UTF-8"?>
<svg width="29px" height="29px" viewBox="0 0 29 29" version="1.1" xmlns="http://www.w3.org/2000/svg" xmlns:xlink="http://www.w3.org/1999/xlink">
    <!-- Generator: Sketch 57.1 (83088) - https://sketch.com -->
    <title>facebook-app-logo</title>
    <desc>Created with Sketch.</desc>
    <g id="Page-1" stroke="none" stroke-width="1" fill="none" fill-rule="evenodd">
        <g id="DeJa-Vu" transform="translate(-1526.000000, -885.000000)" fill="#FFFFFF" fill-rule="nonzero">
            <g id="facebook-app-logo" transform="translate(1526.000000, 885.000000)">
                <path d="M27.398439,0 L1.60060594,0 C0.717216624,0 0,0.715784101 0,1.60060594 L0,27.398439 C0,28.2832609 0.717216624,29 1.60060594,29 L15.489396,29 L15.489396,17.7694955 L11.7103998,17.7694955 L11.7103998,13.392182 L15.489396,13.392182 L15.489396,10.1642297 C15.489396,6.41913653 17.7761806,4.37874597 21.1177798,4.37874597 C22.7198182,4.37874597 24.093608,4.49860041 24.494237,4.55064875 L24.494237,8.4652572 L22.1764144,8.46621221 C20.3594975,8.46621221 20.0090068,9.33002371 20.0090068,10.5968517 L20.0090068,13.3907495 L24.343822,13.3907495 L23.7770204,17.7675855 L20.0085293,17.7675855 L20.0085293,28.9985675 L27.3979615,28.9985675 C28.2823059,28.9985675 29,28.2808733 29,27.398439 L29,1.59965093 C28.9995225,0.715784101 28.2827834,0 27.398439,0 Z" id="Path"></path>
            </g>
        </g>
    </g>
</svg>