<?xml version="1.0" standalone="no"?>
<!DOCTYPE svg PUBLIC "-//W3C//DTD SVG 20010904//EN"
 "http://www.w3.org/TR/2001/REC-SVG-20010904/DTD/svg10.dtd">
<svg version="1.0" xmlns="http://www.w3.org/2000/svg"
 width="190.000000pt" height="190.000000pt" viewBox="0 0 190.000000 190.000000"
 preserveAspectRatio="xMidYMid meet">
<metadata>
Created by potrace 1.11, written by Peter Selinger 2001-2013
</metadata>
<g transform="translate(0.000000,190.000000) scale(0.100000,-0.100000)"
fill="#000000" stroke="none">
<path d="M77 1887 c11 -13 10 -52 -3 -81 -6 -15 -4 -17 7 -11 11 6 12 5 2 -6
-7 -7 -13 -17 -13 -22 0 -4 6 -5 13 -1 9 5 9 4 0 -6 -10 -11 -10 -17 0 -29 9
-12 9 -13 0 -7 -7 4 -13 3 -13 -3 0 -5 4 -12 8 -15 10 -6 8 -114 -3 -140 -7
-15 -5 -17 6 -11 11 6 12 5 2 -6 -7 -7 -13 -17 -13 -22 0 -4 6 -5 13 -1 10 6
10 4 0 -7 -15 -15 -18 -33 -5 -25 5 3 9 -1 9 -9 0 -8 -4 -12 -9 -9 -4 3 -8 1
-8 -5 0 -5 4 -12 8 -15 10 -6 7 -105 -3 -130 -7 -15 -5 -17 6 -11 11 6 12 5 1
-6 -16 -17 -16 -32 1 -23 9 6 9 5 0 -7 -10 -12 -10 -18 0 -29 9 -10 9 -11 0
-6 -14 8 -18 -10 -5 -18 10 -6 8 -114 -3 -140 -7 -15 -5 -17 6 -11 11 6 12 5
1 -6 -16 -17 -16 -32 0 -23 10 6 11 4 1 -7 -15 -15 -18 -33 -5 -25 5 3 9 -1 9
-9 0 -8 -4 -12 -9 -9 -4 3 -8 1 -8 -5 0 -5 4 -12 8 -15 10 -6 7 -105 -3 -130
-7 -15 -5 -17 6 -11 11 6 12 5 2 -6 -17 -17 -17 -32 -1 -23 10 6 10 5 1 -7
-10 -12 -10 -18 0 -29 9 -10 9 -11 0 -6 -14 8 -18 -10 -5 -18 10 -6 8 -114 -3
-140 -7 -15 -5 -17 6 -11 11 6 12 5 2 -6 -7 -7 -13 -17 -13 -22 0 -4 6 -5 13
-1 10 6 10 4 0 -7 -15 -15 -18 -33 -5 -25 5 3 9 -1 9 -9 0 -8 -4 -12 -9 -9 -4
3 -8 1 -8 -5 0 -5 4 -12 8 -15 10 -6 7 -105 -3 -130 -7 -15 -5 -17 6 -11 11 6
12 5 2 -6 -17 -17 -17 -32 -1 -23 10 6 10 5 1 -7 -10 -12 -10 -18 0 -29 9 -10
9 -11 0 -6 -14 8 -18 -10 -5 -18 10 -6 8 -114 -3 -140 -7 -15 -5 -17 6 -11 11
6 12 5 2 -6 -7 -7 -13 -17 -13 -22 0 -4 6 -5 13 -1 10 6 10 4 0 -7 -15 -15
-18 -33 -5 -25 5 3 9 -1 9 -9 0 -8 -4 -12 -9 -9 -4 3 -8 1 -8 -4 0 -6 6 -12
13 -14 20 -7 901 -2 917 5 8 4 33 9 55 11 22 2 44 5 48 5 5 1 6 5 3 9 -3 5 1
9 9 9 8 0 11 -5 8 -11 -4 -6 1 -5 10 3 9 7 23 11 32 8 8 -4 19 1 24 11 5 9 13
14 17 10 3 -4 16 -2 28 4 21 12 40 18 63 20 6 1 9 7 6 14 -3 9 2 12 16 9 12
-2 21 0 21 6 0 5 7 9 15 9 8 0 15 4 15 9 0 5 10 13 22 17 12 3 30 15 41 25 11
10 23 16 27 14 5 -3 11 2 14 11 3 8 10 12 16 9 5 -3 10 0 10 7 0 8 13 22 30
31 16 10 35 27 40 38 6 11 16 16 22 13 7 -4 8 -3 4 4 -4 7 -2 12 4 12 6 0 9 3
7 8 -5 9 30 42 37 34 3 -3 6 2 6 11 0 8 7 23 16 31 8 9 12 16 9 16 -4 0 3 9
16 21 13 11 17 17 9 13 -14 -7 14 33 33 47 5 3 8 8 7 10 -1 2 3 17 9 32 6 16
11 34 11 40 0 7 7 21 15 31 8 10 12 23 9 27 -3 5 -1 9 3 9 5 0 10 14 11 32 2
18 8 36 15 40 9 6 9 10 -2 17 -9 6 -10 10 -2 12 7 3 13 27 14 57 1 36 6 51 14
48 7 -3 10 1 6 9 -3 8 -10 12 -15 9 -6 -4 -4 4 4 17 15 26 17 47 5 67 -5 6 -4
12 1 12 6 0 8 9 5 20 -3 11 -10 17 -17 13 -6 -3 -2 4 9 17 14 16 16 22 5 18
-12 -4 -15 3 -15 31 0 20 5 39 10 43 6 5 5 8 -2 8 -8 0 -13 14 -13 38 0 21 -6
47 -14 57 -7 10 -11 26 -9 36 3 9 0 20 -6 23 -6 4 -11 16 -11 27 0 10 -4 19
-9 19 -5 0 -12 7 -15 16 -3 8 -2 12 4 9 5 -3 -1 13 -13 37 -12 24 -25 45 -29
46 -5 2 -8 13 -8 23 0 11 -4 17 -10 14 -5 -3 -10 3 -10 13 0 23 -23 45 -35 34
-5 -4 -5 -2 -2 5 4 6 0 18 -8 26 -8 9 -15 21 -15 27 0 6 -4 8 -10 5 -5 -3 -10
1 -10 9 0 18 -54 58 -66 48 -4 -4 -2 1 6 11 7 10 9 17 4 15 -13 -3 -55 22 -50
30 3 4 -9 14 -25 21 -16 7 -26 17 -23 23 4 6 2 8 -3 5 -6 -4 -22 2 -35 13 -14
11 -28 17 -31 13 -4 -3 -9 1 -13 10 -3 9 -12 13 -21 10 -11 -4 -14 -2 -9 5 5
8 0 12 -13 12 -12 0 -21 5 -21 11 0 5 -4 8 -9 4 -5 -3 -17 2 -25 11 -9 8 -16
13 -16 9 0 -3 -10 0 -22 7 -13 7 -31 11 -42 9 -11 -2 -16 2 -11 8 3 7 3 11 -2
10 -4 -1 -21 -1 -38 0 -23 1 -27 3 -15 11 9 6 10 10 3 10 -7 0 -17 -8 -23 -17
-11 -17 -11 -17 -6 0 5 16 -22 17 -515 17 -407 -1 -519 -3 -512 -13z m793
-359 c0 -4 11 -3 25 2 16 6 27 6 31 -2 5 -7 3 -8 -6 -3 -9 6 -11 4 -5 -4 5 -9
11 -9 17 -3 7 7 19 7 35 1 14 -5 28 -7 33 -4 4 3 11 -2 14 -11 3 -9 12 -14 19
-11 6 2 28 -4 48 -14 20 -10 40 -15 44 -11 5 4 5 1 1 -5 -5 -9 0 -13 14 -13
12 0 18 -4 15 -10 -3 -5 -1 -10 5 -10 6 0 18 -7 27 -15 8 -8 19 -13 24 -9 5 3
8 0 7 -8 -2 -7 4 -12 12 -10 8 2 12 0 8 -4 -4 -4 0 -14 10 -23 28 -25 82 -108
82 -125 0 -9 5 -16 10 -16 6 0 10 -11 10 -24 0 -13 4 -26 10 -28 5 -1 10 -20
12 -40 2 -31 4 -35 17 -25 12 10 13 9 3 -10 -15 -27 -15 -36 -2 -28 7 4 7 -3
0 -20 -5 -14 -6 -24 -2 -21 4 2 8 -29 7 -70 0 -41 -3 -74 -6 -74 -3 0 -4 -11
-1 -25 2 -14 0 -25 -5 -25 -8 0 -13 -18 -16 -62 -1 -10 -5 -18 -10 -18 -4 0
-5 -5 -2 -10 3 -6 -1 -13 -10 -16 -13 -6 -14 -8 -3 -15 10 -7 9 -9 -4 -9 -11
0 -15 -5 -12 -15 4 -8 -1 -17 -10 -21 -9 -3 -13 -10 -10 -15 3 -5 0 -9 -6 -9
-6 0 -8 -5 -5 -10 3 -6 -1 -13 -10 -16 -9 -4 -23 -20 -31 -36 -8 -16 -19 -26
-24 -23 -6 4 -10 -1 -10 -9 0 -9 -7 -16 -15 -16 -9 0 -18 -7 -21 -15 -4 -8
-10 -12 -15 -9 -5 3 -9 1 -9 -5 0 -5 -9 -13 -20 -16 -11 -4 -18 -11 -15 -16 3
-5 0 -6 -8 -3 -8 3 -18 0 -22 -5 -3 -6 -11 -9 -16 -6 -5 4 -9 1 -9 -4 0 -6
-12 -11 -26 -11 -14 0 -22 -4 -19 -10 3 -6 -1 -7 -10 -4 -8 4 -21 2 -28 -3 -6
-5 -22 -8 -34 -7 -13 0 -23 -3 -23 -7 0 -5 -5 -9 -11 -9 -5 0 -7 5 -3 11 4 8
1 8 -12 1 -11 -5 -106 -10 -213 -11 -168 -2 -193 0 -188 13 3 8 1 16 -5 18 -8
3 -7 10 1 26 6 12 8 22 3 22 -10 0 -9 36 1 46 4 4 2 13 -3 19 -7 9 -7 21 0 39
5 14 6 26 1 26 -11 0 -9 19 2 38 5 7 3 12 -4 12 -8 0 -8 4 1 15 10 12 10 15 0
15 -10 0 -10 3 0 15 7 8 8 15 3 15 -11 0 -11 29 1 48 4 7 2 12 -5 12 -8 0 -8
4 1 15 10 12 10 15 0 15 -10 0 -10 3 0 15 7 8 8 15 3 15 -5 0 -9 10 -7 23 1
12 3 26 3 30 1 5 7 5 14 2 6 -4 5 -1 -4 7 -14 12 -19 72 -6 84 3 3 2 18 -3 33
-4 16 -4 34 0 41 5 7 4 23 0 35 -5 14 -4 27 3 34 8 8 8 11 -2 11 -11 0 -11 3
-1 15 10 12 10 15 0 15 -10 0 -10 3 0 15 7 8 8 15 3 15 -11 0 -11 29 1 48 4 7
2 12 -5 12 -8 0 -8 4 1 15 10 12 10 15 0 15 -10 0 -10 3 0 15 7 8 8 15 3 15
-5 0 -9 10 -7 23 1 12 3 26 3 30 1 5 7 5 14 2 6 -4 5 -1 -4 7 -14 12 -19 72
-6 84 3 3 1 18 -3 34 -7 25 -5 29 13 32 45 6 357 3 357 -4z"/>
<path d="M65 1871 c-3 -5 -2 -12 3 -15 5 -3 9 1 9 9 0 17 -3 19 -12 6z"/>
<path d="M65 1631 c-3 -5 -2 -12 3 -15 5 -3 9 1 9 9 0 17 -3 19 -12 6z"/>
<path d="M65 1391 c-3 -5 -2 -12 3 -15 5 -3 9 1 9 9 0 17 -3 19 -12 6z"/>
<path d="M65 1151 c-3 -5 -2 -12 3 -15 5 -3 9 1 9 9 0 17 -3 19 -12 6z"/>
<path d="M65 911 c-3 -5 -2 -12 3 -15 5 -3 9 1 9 9 0 17 -3 19 -12 6z"/>
<path d="M65 671 c-3 -5 -2 -12 3 -15 5 -3 9 1 9 9 0 17 -3 19 -12 6z"/>
<path d="M65 431 c-3 -5 -2 -12 3 -15 5 -3 9 1 9 9 0 17 -3 19 -12 6z"/>
<path d="M65 191 c-3 -5 -2 -12 3 -15 5 -3 9 1 9 9 0 17 -3 19 -12 6z"/>
</g>
</svg>
