<?xml version="1.0" encoding="UTF-8"?>
<svg width="29px" height="38px" viewBox="0 0 29 38" version="1.1" xmlns="http://www.w3.org/2000/svg" xmlns:xlink="http://www.w3.org/1999/xlink">
    <!-- Generator: Sketch 57.1 (83088) - https://sketch.com -->
    <title>yelp</title>
    <desc>Created with Sketch.</desc>
    <g id="Page-1" stroke="none" stroke-width="1" fill="none" fill-rule="evenodd">
        <g id="DeJa-Vu" transform="translate(-1526.000000, -928.000000)" fill="#FFFFFF" fill-rule="nonzero">
            <g id="yelp" transform="translate(1526.000000, 928.000000)">
                <path d="M10.5077271,25.4255052 C11.3592957,25.2021271 11.9429502,24.4260972 11.9963004,23.445463 C12.0502321,22.4467151 11.5100428,21.5580428 10.6683593,21.240796 L8.98630052,20.5493213 C2.87820745,18.0073872 2.85276797,18.0073872 2.45205974,18.0023271 C1.79215949,17.967933 1.18059427,18.3164938 0.789843776,18.9353669 C0.789262302,18.9366136 0.788608144,18.9378603 0.787953986,18.939107 C0.0374891737,20.1468594 -0.112603789,23.4060088 0.0709239256,25.2020537 C0.156545964,25.9873971 0.296099711,26.5556692 0.494527696,26.9336373 C0.827566898,27.5763443 1.42365038,27.9730861 2.0767183,27.9950132 C2.11952932,27.9975066 2.15797929,28 2.19831904,28 C2.5518552,28 3.07903402,27.8316964 8.13335093,26.1920748 C9.84215749,25.6419898 10.344551,25.4799197 10.5077271,25.4255052 Z" id="Path"></path>
                <path d="M14.5366345,25.1738078 C13.5797399,24.7959932 12.5350151,25.0483341 11.9470073,25.7927396 C11.9463258,25.7927396 10.8473129,27.1296044 10.7355566,27.2611158 C10.730408,27.267076 10.7251836,27.2730362 10.7200349,27.2796156 C6.2677266,32.6212693 6.25606639,32.6562564 6.11652242,33.0678197 C6.01506343,33.3465557 5.97955278,33.6437916 6.01120193,33.9106847 C6.04868118,34.3122627 6.21215131,34.6947217 6.50032513,35.0514047 C7.53346539,36.3130316 11.8488041,38 13.8445933,38 C14.0009462,38 14.1430645,37.9893955 14.2684496,37.9676446 C15.0121289,37.826922 15.5761349,37.3658968 15.8152449,36.7027667 C15.8159264,36.698819 15.8172136,36.6954906 15.8185007,36.6921622 C15.9554704,36.2925193 15.9631934,36.2681366 15.9793965,29.9819076 C15.9793965,29.9819076 15.9929496,27.4732059 15.9962054,27.3378243 C16.0524621,26.3951841 15.4792945,25.5450431 14.5366345,25.1738078 Z" id="Path"></path>
                <path d="M28.296117,26.9513236 C27.9731796,26.7161809 27.9606377,26.7076861 22.2970948,24.8985006 C22.2970948,24.8985006 20.1321748,24.2022098 19.9256357,24.130325 C19.9237287,24.1296825 19.9224819,24.1291114 19.9206483,24.128469 C19.0875974,23.8135177 18.151277,24.0894927 17.5373073,24.8265444 C16.9058081,25.5764455 16.8250554,26.5900433 17.3263675,27.3338053 L18.2820509,28.8487411 C21.7650513,34.3548923 21.8057577,34.3865873 22.1237076,34.6277978 C22.4478918,34.8745049 22.8328056,35 23.2371558,35 C23.4962832,35 23.7628917,34.9488168 24.0276666,34.8440234 C25.5948261,34.235465 28.7380198,30.3454023 28.9764639,28.7183918 C29.0803202,28.0124639 28.8381355,27.3722105 28.296117,26.9513236 Z" id="Path"></path>
                <path d="M18.3961528,20.9867909 C18.4374548,20.9962365 18.4799842,21 18.5224414,21 C18.5957307,21 18.6696699,20.9867909 18.741154,20.9590445 C19.0110608,20.8544789 19.5748468,20.7140496 20.4713589,20.4968749 C20.4720087,20.4968749 20.4725864,20.4968749 20.4738139,20.4962107 C26.8159729,18.9263245 26.85908,18.8979877 27.2059586,18.6681943 C27.7451223,18.2966432 28.0322141,17.6694709 27.9971219,16.9471786 C27.9976995,16.9100604 27.9958944,16.8634228 27.9934394,16.8363405 C27.8141514,15.0926702 25.0660558,10.9492303 23.5996201,10.2162379 C22.9477426,9.89826101 22.2557906,9.93287023 21.7104894,10.3075206 C21.3753083,10.5297871 21.3753083,10.5297871 17.8995186,15.3879925 C17.8995186,15.3879925 16.5002347,17.3331194 16.4336606,17.4238118 C15.8760121,18.1190219 15.8544947,19.1001085 16.3788561,19.9237195 C16.8507958,20.6612133 17.6302617,21.0648646 18.3961528,20.9867909 Z" id="Path"></path>
                <path d="M14.9885955,1.45803601 C14.7925356,0.765833413 14.2355578,0.260233061 13.458614,0.0703228021 C11.5749329,-0.37874053 4.96291663,1.41826462 3.62565753,2.751997 C3.09514699,3.28894833 2.88449511,3.99212753 3.0613837,4.63110112 C3.0720172,4.66959441 3.08653153,4.70613296 3.10376245,4.74207006 C3.28988744,5.11677819 9.34888434,14.3550928 11.1967841,17.1690125 C11.9717098,18.3879416 12.8221566,19 13.7249171,19 C13.9395274,19 14.1560782,18.965341 14.3753455,18.8966996 C15.5350951,18.5579286 16.0788781,17.498085 15.9907831,15.7466403 C15.891977,13.5404184 15.1137914,2.13550289 14.9885955,1.45803601 Z" id="Path"></path>
            </g>
        </g>
    </g>
</svg>