<svg width="165" height="284" viewBox="0 0 165 284" xmlns="http://www.w3.org/2000/svg" xmlns:xlink="http://www.w3.org/1999/xlink">
    <title>
        Group 9 Copy
    </title>
    <defs>
        <path id="a" d="M0 .67H75.33V76H0z"/>
        <path id="c" d="M0 .837H75.33v75.077H0z"/>
    </defs>
    <g fill="none" fill-rule="evenodd" opacity=".428">
        <path d="M61.056 158.942c8.79 8.789 23.094 8.789 31.886 0 8.789-8.79 8.789-23.092 0-31.884-8.792-8.789-23.094-8.789-31.884-.002-8.791 8.794-8.791 23.096-.002 31.886zM17.75 95.624l11.876-11.876 8.4 8.403a63.336 63.336 0 0 1 14.457-8.203l-3.11-11.6L65.598 68l3.157 11.786a64.216 64.216 0 0 1 16.456.138L88.405 68l16.219 4.347-3.231 12.06a63.398 63.398 0 0 1 14.063 8.263l8.918-8.92 11.876 11.874-8.983 8.979a63.34 63.34 0 0 1 8.086 14.07l12.3-3.297 4.347 16.22-12.332 3.302c.697 5.383.706 10.83.03 16.21l12.3 3.295-4.345 16.223-12.208-3.274a63.19 63.19 0 0 1-8.072 14.147l8.88 8.875-11.877 11.876-8.787-8.785a63.474 63.474 0 0 1-14.14 8.343l3.173 11.847-16.22 4.343-3.134-11.692a64.132 64.132 0 0 1-16.575.138L65.595 218l-16.221-4.347 3.053-11.385a63.25 63.25 0 0 1-14.535-8.286l-8.268 8.268-11.874-11.876 8.208-8.205a63.393 63.393 0 0 1-8.47-14.533l-11.143 2.988L2 154.403l11.15-2.988a64.251 64.251 0 0 1 .027-16.823L2 131.597l4.345-16.22 11.238 3.012a63.412 63.412 0 0 1 8.478-14.456l-8.311-8.31z" stroke="#FFE9C1" stroke-width="2"/>
        <g transform="matrix(-1 0 0 1 165 208)">
            <mask id="b" fill="#fff">
                <use xlink:href="#a"/>
            </mask>
            <path d="M67.42 14.544L61.456 8.58l-4.221 4.22a31.82 31.82 0 0 0-7.259-4.118l1.563-5.827L43.39.671l-1.586 5.92a32.128 32.128 0 0 0-8.261.07L31.937.671l-8.146 2.183 1.624 6.056a31.85 31.85 0 0 0-7.064 4.151l-4.48-4.48-5.962 5.963 4.509 4.51a31.97 31.97 0 0 0-4.059 7.063l-6.176-1.653L0 32.61l6.192 1.658a32.222 32.222 0 0 0-.014 8.141L0 44.063l2.183 8.146 6.131-1.644a31.709 31.709 0 0 0 4.054 7.104l-4.46 4.46 5.964 5.962 4.413-4.414a31.81 31.81 0 0 0 7.1 4.192l-1.592 5.947L31.94 76l1.572-5.873c2.76.385 5.56.406 8.325.07l1.556 5.805 8.146-2.186-1.533-5.718a31.815 31.815 0 0 0 7.3-4.158l4.153 4.151 5.963-5.963-4.125-4.124a31.79 31.79 0 0 0 4.254-7.294l5.596 1.499 2.183-8.146-5.6-1.502a32.16 32.16 0 0 0-.014-8.447l5.614-1.504-2.183-8.146-5.642 1.513a31.792 31.792 0 0 0-4.26-7.259l4.177-4.174z" stroke="#FFE9C1" stroke-width="2" mask="url(#b)"/>
        </g>
        <g transform="matrix(-1 0 0 1 165 0)">
            <mask id="d" fill="#fff">
                <use xlink:href="#c"/>
            </mask>
            <path d="M67.42 14.664L61.456 8.72l-4.221 4.205a31.848 31.848 0 0 0-7.259-4.103l1.563-5.808L43.39.837l-1.586 5.9a32.235 32.235 0 0 0-8.261.07L31.937.837l-8.146 2.176 1.624 6.036a31.875 31.875 0 0 0-7.064 4.137l-4.48-4.465-5.962 5.943 4.509 4.494a31.785 31.785 0 0 0-4.059 7.04l-6.176-1.647L0 32.67l6.192 1.652a31.99 31.99 0 0 0-.014 8.112L0 44.084l2.183 8.119 6.131-1.639a31.576 31.576 0 0 0 4.054 7.08l-4.46 4.445 5.964 5.943 4.413-4.399a31.834 31.834 0 0 0 7.1 4.178l-1.592 5.927 8.146 2.176 1.572-5.853c2.76.384 5.56.404 8.325.07l1.556 5.783 8.146-2.176-1.533-5.699a31.843 31.843 0 0 0 7.3-4.144l4.153 4.137 5.963-5.943-4.125-4.11a31.66 31.66 0 0 0 4.254-7.27l5.596 1.494 2.183-8.12-5.6-1.496a31.947 31.947 0 0 0-.014-8.419l5.614-1.498-2.183-8.12-5.642 1.506a31.696 31.696 0 0 0-4.26-7.232l4.177-4.16z" stroke="#FFE9C1" stroke-width="2" mask="url(#d)"/>
        </g>
    </g>
</svg>
