<svg width="87" height="266" viewBox="0 0 87 266" xmlns="http://www.w3.org/2000/svg" xmlns:xlink="http://www.w3.org/1999/xlink">
    <title>
        Group 15
    </title>
    <defs>
        <path id="a" d="M0 .868h40.11V40H0z"/>
        <path id="c" d="M.139.061h39.914v39.133H.14z"/>
    </defs>
    <g fill="none" fill-rule="evenodd">
        <path d="M54.897 199.896c-4.629 4.629-12.163 4.629-16.793 0-4.629-4.63-4.629-12.162 0-16.792 4.63-4.629 12.163-4.629 16.792-.001 4.63 4.631 4.63 12.164.001 16.793zm22.808-33.347l-6.255-6.255-4.423 4.426a33.357 33.357 0 0 0-7.615-4.32l1.638-6.11-8.545-2.29-1.662 6.207a33.82 33.82 0 0 0-8.667.073L40.493 152l-8.542 2.29 1.702 6.35a33.39 33.39 0 0 0-7.407 4.353l-4.696-4.698-6.255 6.254 4.731 4.728a33.36 33.36 0 0 0-4.258 7.41l-6.478-1.736L7 185.493l6.495 1.74a33.729 33.729 0 0 0-.016 8.537l-6.478 1.735 2.289 8.545 6.429-1.725a33.28 33.28 0 0 0 4.251 7.451l-4.676 4.674 6.255 6.255 4.627-4.627a33.43 33.43 0 0 0 7.447 4.394l-1.67 6.24 8.542 2.287 1.65-6.158c2.894.404 5.831.424 8.73.073L52.507 231l8.543-2.29-1.608-5.995a33.311 33.311 0 0 0 7.655-4.365l4.354 4.355 6.254-6.255-4.323-4.321a33.387 33.387 0 0 0 4.46-7.654l5.87 1.574L86 197.505l-5.872-1.573a33.84 33.84 0 0 0-.015-8.86L86 185.495l-2.288-8.544-5.92 1.587a33.397 33.397 0 0 0-4.464-7.613l4.377-4.376z" fill="#FFD68C"/>
        <g transform="translate(0 226)">
            <mask id="b" fill="#fff">
                <use xlink:href="#a"/>
            </mask>
            <path d="M35.9 8.075l-3.177-3.099-2.248 2.192a17.06 17.06 0 0 0-3.865-2.139l.832-3.027L23.104.868l-.844 3.075a17.531 17.531 0 0 0-4.4.037L17.005.868l-4.337 1.134.865 3.146A17.06 17.06 0 0 0 9.77 7.304L7.386 4.977 4.211 8.075l2.401 2.342a16.51 16.51 0 0 0-2.161 3.67l-3.288-.859L0 17.46l3.297.86a16.334 16.334 0 0 0-.007 4.23L0 23.41l1.163 4.23 3.264-.853a16.372 16.372 0 0 0 2.158 3.69l-2.374 2.317 3.175 3.098 2.35-2.293c1.18.898 2.45 1.623 3.78 2.177l-.847 3.09L17.007 40l.837-3.05c1.47.2 2.96.21 4.432.036L23.105 40l4.337-1.135-.816-2.97a17.056 17.056 0 0 0 3.887-2.16l2.211 2.156 3.175-3.098-2.196-2.142a16.424 16.424 0 0 0 2.265-3.79l2.98.779 1.162-4.232-2.982-.78a16.303 16.303 0 0 0-.007-4.388l2.99-.781-1.163-4.232-3.004.786a16.428 16.428 0 0 0-2.268-3.77l2.223-2.169z" fill="#FFD68C" mask="url(#b)"/>
        </g>
        <path d="M35.8 125.183l-3.167-3.089-2.242 2.185c-1.203-.885-2.5-1.6-3.854-2.132l.83-3.017L23.04 118l-.842 3.065a17.494 17.494 0 0 0-4.387.036L16.96 118l-4.326 1.13.862 3.136a17.016 17.016 0 0 0-3.75 2.149l-2.38-2.32-3.166 3.088 2.395 2.334a16.426 16.426 0 0 0-2.155 3.657l-3.28-.856L0 134.536l3.288.858a16.26 16.26 0 0 0-.007 4.214L0 140.465l1.16 4.218 3.255-.851a16.315 16.315 0 0 0 2.152 3.678L4.2 149.818l3.167 3.088 2.344-2.286a16.992 16.992 0 0 0 3.77 2.17l-.846 3.08L16.96 157l.834-3.04c1.466.199 2.953.21 4.421.036l.826 3.004 4.326-1.13-.814-2.96a17.012 17.012 0 0 0 3.876-2.154l2.205 2.15 3.167-3.088-2.19-2.135a16.367 16.367 0 0 0 2.258-3.776l2.972.776L40 140.465l-2.974-.777a16.238 16.238 0 0 0-.007-4.374l2.981-.778-1.16-4.218-2.995.782a16.389 16.389 0 0 0-2.262-3.756l2.218-2.161z" fill="#FFD68C"/>
        <path d="M31.103 66.104c4.63-4.629 12.163-4.629 16.794 0 4.629 4.63 4.629 12.162 0 16.792-4.63 4.629-12.165 4.629-16.794 0-4.629-4.63-4.629-12.163 0-16.792zm-18.432-12.18a33.402 33.402 0 0 0-4.464 7.613l-5.92-1.587L0 68.495l5.887 1.577a33.787 33.787 0 0 0-.015 8.86L0 80.505l2.288 8.542 5.87-1.572a33.312 33.312 0 0 0 4.46 7.653L8.295 99.45l6.254 6.254 4.353-4.355a33.313 33.313 0 0 0 7.655 4.363l-1.606 5.996L33.494 114l1.632-6.086a33.82 33.82 0 0 0 8.728-.073L45.506 114l8.542-2.289-1.67-6.239a33.34 33.34 0 0 0 7.446-4.394l4.628 4.628 6.254-6.255-4.675-4.674a33.399 33.399 0 0 0 4.251-7.45l6.428 1.723L79 80.505l-6.478-1.735a33.783 33.783 0 0 0-.016-8.537L79 68.493l-2.288-8.543-6.479 1.736a33.398 33.398 0 0 0-4.258-7.409l4.73-4.728-6.254-6.254-4.698 4.698a33.337 33.337 0 0 0-7.405-4.352l1.7-6.353L45.506 35l-1.683 6.28a33.812 33.812 0 0 0-8.665-.073L33.494 35l-8.543 2.288 1.637 6.111a33.357 33.357 0 0 0-7.614 4.32l-4.425-4.425-6.254 6.255 4.376 4.376z" fill="#FFD68C"/>
        <path d="M52.416 119.343a16.39 16.39 0 0 0-2.261 3.758l-2.997-.783L46 126.535l2.981.779a16.237 16.237 0 0 0-.007 4.373l-2.974.778 1.16 4.217 2.97-.776c.567 1.33 1.321 2.6 2.26 3.778l-2.19 2.133 3.166 3.088 2.204-2.15a17.05 17.05 0 0 0 3.877 2.154l-.814 2.96L62.959 149l.825-3.005c1.468.173 2.954.163 4.42-.036l.836 3.04 4.326-1.13-.847-3.08a17.014 17.014 0 0 0 3.771-2.168l2.343 2.284 3.168-3.088-2.368-2.308a16.352 16.352 0 0 0 2.152-3.677l3.256.85L86 132.465l-3.282-.856c.182-1.4.18-2.817-.006-4.215l3.288-.859-1.16-4.217-3.279.857a16.392 16.392 0 0 0-2.156-3.658l2.394-2.334-3.166-3.088-2.377 2.32a17.071 17.071 0 0 0-3.752-2.15l.862-3.135L69.04 110l-.851 3.101a17.449 17.449 0 0 0-4.389-.035L62.96 110l-4.326 1.13.83 3.017a17.055 17.055 0 0 0-3.856 2.133l-2.241-2.186-3.167 3.089 2.217 2.16z" fill="#FFD68C"/>
        <g transform="translate(46)">
            <mask id="d" fill="#fff">
                <use xlink:href="#c"/>
            </mask>
            <path d="M6.54 9.436a16.457 16.457 0 0 0-2.255 3.77l-2.99-.785-1.156 4.232 2.975.781a16.382 16.382 0 0 0-.008 4.388l-2.967.78 1.157 4.232 2.965-.779a16.406 16.406 0 0 0 2.253 3.79L4.33 31.988l3.16 3.098 2.2-2.157a16.987 16.987 0 0 0 3.868 2.161l-.812 2.97 4.316 1.135.823-3.015c1.466.174 2.949.163 4.412-.037l.834 3.05 4.316-1.133-.845-3.09a16.955 16.955 0 0 0 3.763-2.176l2.338 2.292 3.16-3.098L33.5 29.67a16.429 16.429 0 0 0 2.148-3.689l3.248.853 1.157-4.232-3.275-.86a16.351 16.351 0 0 0-.006-4.228l3.281-.861-1.157-4.232-3.272.86a16.469 16.469 0 0 0-2.152-3.67l2.39-2.343-3.16-3.098-2.372 2.328a17.01 17.01 0 0 0-3.744-2.157l.86-3.146L23.13.061l-.85 3.112a17.316 17.316 0 0 0-4.379-.035L17.061.06l-4.316 1.134.828 3.027a16.991 16.991 0 0 0-3.847 2.14L7.489 4.17l-3.16 3.1 2.212 2.167z" fill="#FFD68C" mask="url(#d)"/>
        </g>
    </g>
</svg>
