<svg width="88" height="415" viewBox="0 0 88 415" xmlns="http://www.w3.org/2000/svg">
    <title>
        Group 7
    </title>
    <g fill="#8CC8A8" fill-rule="evenodd">
        <path d="M34.622 210L1 244.011V298l87-88H34.622zm-21.335 39.575l26.838-27.145h17.891l-44.729 45.243v-18.098z"/>
        <path d="M1 166.99L34.622 201H88L1 113v53.99zm12.287-5.565v-18.097l44.73 45.242H40.124l-26.838-27.145z"/>
        <path d="M0 98l87 87v-53.375L53.378 98H0zm29.983 12.289h17.89l26.839 26.836v17.892l-44.73-44.728z"/>
        <path d="M86.999 0L0 87h53.378L87 53.376V0h-.001zM74.712 29.983v17.891L47.874 74.711H29.983l44.729-44.728z"/>
        <path d="M0 328l87 87v-53.374L53.378 328H0zm29.983 12.288h17.89l26.839 26.838v17.891l-44.73-44.73z"/>
        <path d="M0 317h53.378L87 283.376V230L0 317zm74.712-57.017v17.892L47.874 304.71H29.983l44.729-44.728z"/>
    </g>
</svg>
