<?xml version="1.0" encoding="UTF-8"?>
<svg width="165px" height="284px" viewBox="0 0 165 284" version="1.1" xmlns="http://www.w3.org/2000/svg" xmlns:xlink="http://www.w3.org/1999/xlink">
    <!-- Generator: Sketch 61.2 (89653) - https://sketch.com -->
    <title>Group 9 Copy 2</title>
    <desc>Created with Sketch.</desc>
    <defs>
        <polygon id="path-1" points="0.000226470588 0.6709 75.3288735 0.6709 75.3288735 76 0.000226470588 76"></polygon>
        <polygon id="path-3" points="0.000226470588 0.837314286 75.3288735 0.837314286 75.3288735 75.9141743 0.000226470588 75.9141743"></polygon>
    </defs>
    <g id="Symbols" stroke="none" stroke-width="1" fill="none" fill-rule="evenodd" opacity="0.427897135">
        <g id="Text-with-Image-Block-Projects" transform="translate(-500.000000, -39.000000)">
            <g id="Group-9-Copy-2" transform="translate(583.500000, 181.500000) scale(-1, 1) translate(-583.500000, -181.500000) translate(502.000000, 39.000000)">
                <path d="M103.94387,158.941615 C95.1545608,167.730924 80.8499489,167.730924 72.0583849,158.941615 C63.2690758,150.152306 63.2690758,135.849949 72.0583849,127.058385 C80.8499489,118.269076 95.1523059,118.269076 103.941615,127.05613 C112.733179,135.849949 112.733179,150.152306 103.94387,158.941615 L103.94387,158.941615 Z M147.250045,95.6238651 L135.37388,83.7477001 L126.974656,92.1514341 C122.455986,88.7398834 117.594582,85.9980158 112.516716,83.9483795 L115.62612,72.3473032 L99.4026517,68 L96.2458962,79.785972 C90.7801996,79.1298178 85.2468583,79.1681498 79.790181,79.9235163 L76.5950935,68 L60.3761349,72.3473032 L63.6072996,84.4061091 C58.6624677,86.5076063 53.934099,89.2652577 49.5439541,92.6700439 L40.6261199,83.7499549 L28.7499549,95.6238651 L37.733179,104.60258 C34.389273,109.006253 31.6947568,113.732367 29.6473754,118.67269 L17.3473032,115.376135 L13,131.595094 L25.3316397,134.898413 C24.6348987,140.280681 24.6258794,145.728339 25.302327,151.108352 L13.0022548,154.402652 L17.3473032,170.62612 L29.5549275,167.352114 C31.58878,172.319494 34.2855511,177.07492 37.6272022,181.498888 L28.7477001,190.37388 L40.6238651,202.250045 L49.4109194,193.465246 C53.8213577,196.906109 58.5790391,199.686309 63.550929,201.808099 L60.3783898,213.654952 L76.5973483,217.997745 L79.7315555,206.306476 C85.2265648,207.073116 90.8027479,207.111448 96.3067765,206.44402 L99.4049065,218 L115.62612,213.652697 L112.573086,202.268084 C117.684775,200.200409 122.570982,197.426974 127.10769,193.981601 L135.376135,202.250045 L147.250045,190.37388 L139.042481,182.168571 C142.557754,177.638627 145.385305,172.750165 147.511605,167.636222 L158.654952,170.623865 L163,154.402652 L151.849889,151.415008 C152.578197,145.832061 152.569178,140.174704 151.822831,134.591756 L163,131.597348 L158.654952,115.376135 L147.416902,118.388582 C145.281583,113.299441 142.451777,108.440292 138.938759,103.932896 L147.250045,95.6238651 Z" id="Fill-1" stroke="#FFD68C" stroke-width="2"></path>
                <g id="Group-5" transform="translate(0.000000, 208.000000)">
                    <mask id="mask-2" fill="white">
                        <use xlink:href="#path-1"></use>
                    </mask>
                    <g id="Clip-4"></g>
                    <path d="M67.4205206,14.5444882 L61.4552853,8.57925294 L57.2338735,12.7984 C54.9669029,11.0885471 52.52555,9.70934118 49.9754912,8.68116471 L51.5381382,2.85407647 L43.3897265,0.6709 L41.8044324,6.59084118 C39.0596088,6.26019412 36.2808147,6.28057647 33.5427853,6.66104706 L31.9371088,0.6709 L23.7909618,2.85407647 L25.4147559,8.9099 C22.9303735,9.96525294 20.5569618,11.3512529 18.3511382,13.0611059 L13.87155,8.58151765 L7.90857941,14.5444882 L12.4176088,19.0535176 C10.7417265,21.2638706 9.38743235,23.6395471 8.35925588,26.1171353 L2.18340294,24.4639 L0.000226470588,32.6100471 L6.19193235,34.2678118 C5.84316765,36.9673412 5.83863824,39.7053706 6.17834412,42.4094294 L0.000226470588,44.0626647 L2.18340294,52.2088118 L8.31396176,50.5646353 C9.33534412,53.0603412 10.6896382,55.4473412 12.3677853,57.6690176 L7.90857941,62.1282235 L13.87155,68.0911941 L18.2854618,63.6772824 C20.5003441,65.4075176 22.8873441,66.8025765 25.3853147,67.8692529 L23.7932265,73.8163706 L31.9393735,75.9995471 L33.5110794,70.1271647 C36.2717559,70.5121647 39.0709324,70.5325471 41.8361382,70.1973706 L43.3919912,76.0018118 L51.5381382,73.8163706 L50.0049324,68.0979882 C52.5708441,67.0607529 55.0257853,65.6679588 57.3040794,63.9399882 L61.45755,68.0911941 L67.4205206,62.1282235 L63.2964912,58.0041941 C65.0629618,55.7304294 66.4806676,53.2777529 67.5496088,50.7095765 L73.1456971,52.2088118 L75.3288735,44.0626647 L69.7282559,42.5611647 C70.0951382,39.7574588 70.0906088,36.9175176 69.7146676,34.1138118 L75.3288735,32.6100471 L73.1456971,24.4639 L67.5043147,25.9767235 C66.4308441,23.4198706 65.0086088,20.9785176 63.2444029,18.7183412 L67.4205206,14.5444882 Z" id="Fill-3" stroke="#FFD68C" stroke-width="2" mask="url(#mask-2)"></path>
                </g>
                <g id="Group-8">
                    <mask id="mask-4" fill="white">
                        <use xlink:href="#path-3"></use>
                    </mask>
                    <g id="Clip-7"></g>
                    <path d="M67.4205206,14.6643457 L61.4552853,8.71903143 L57.2338735,12.9240886 C54.9669029,11.2199457 52.52555,9.84534571 49.9754912,8.82060286 L51.5381382,3.01297429 L43.3897265,0.837088571 L41.8044324,6.73726 C39.0596088,6.40771714 36.2808147,6.42803143 33.5427853,6.80723143 L31.9371088,0.837088571 L23.7909618,3.01297429 L25.4147559,9.04857429 C22.9303735,10.1004029 20.5569618,11.4817743 18.3511382,13.1859171 L13.87155,8.72128857 L7.90857941,14.6643457 L12.4176088,19.1583171 C10.7417265,21.3612886 9.38743235,23.7267743 8.35925588,26.1983457 L2.18340294,24.5506314 L0.000226470588,32.6695743 L6.19193235,34.3218029 C5.84316765,37.0123171 5.83863824,39.7412029 6.17834412,42.4339743 L0.000226470588,44.0839457 L2.18340294,52.2028886 L8.31396176,50.5642029 C9.33534412,53.0515743 10.6896382,55.4306029 12.3677853,57.64486 L7.90857941,62.0891743 L13.87155,68.0322314 L18.2854618,63.63306 C20.5003441,65.3575171 22.8873441,66.7479171 25.3853147,67.8110314 L23.7932265,73.7382886 L31.9393735,75.9141743 L33.5110794,70.0614029 C36.2717559,70.4451171 39.0709324,70.4654314 41.8361382,70.1313743 L43.3919912,75.9141743 L51.5381382,73.7382886 L50.0049324,68.0390029 C52.5708441,67.0052314 55.0257853,65.6170886 57.3040794,63.8948886 L61.45755,68.0322314 L67.4205206,62.0891743 L63.2964912,57.9789171 C65.0629618,55.7127457 66.4806676,53.26826 67.5496088,50.70866 L73.1456971,52.2028886 L75.3288735,44.0839457 L69.7282559,42.58746 C70.0951382,39.7931171 70.0906088,36.9604029 69.7146676,34.1683171 L75.3288735,32.6695743 L73.1456971,24.5506314 L67.5043147,26.0561457 C66.4308441,23.5100886 65.0086088,21.0768886 63.2444029,18.82426 L67.4205206,14.6643457 Z" id="Fill-6" stroke="#FFD68C" stroke-width="2" mask="url(#mask-4)"></path>
                </g>
            </g>
        </g>
    </g>
</svg>