<?xml version="1.0" encoding="UTF-8"?>
<svg width="88px" height="415px" viewBox="0 0 88 415" version="1.1" xmlns="http://www.w3.org/2000/svg" xmlns:xlink="http://www.w3.org/1999/xlink">
    <!-- Generator: Sketch 61.2 (89653) - https://sketch.com -->
    <title>Group 7</title>
    <desc>Created with Sketch.</desc>
    <g id="Symbols" stroke="none" stroke-width="1" fill="none" fill-rule="evenodd">
        <g id="Accent-Text-Block-Operations" transform="translate(-1176.000000, -286.000000)" fill="#8CC8A8">
            <g id="Accent-Section">
                <g id="Group-7" transform="translate(0.000000, 198.330042)">
                    <g transform="translate(1176.000000, 87.669958)">
                        <path d="M34.6217407,210 L1,244.011176 L1,298 L88,210 L34.6217407,210 Z M13.2874074,249.574873 L40.1252963,222.429696 L58.0161481,222.429696 L13.2874074,267.673098 L13.2874074,249.574873 Z" id="Fill-1"></path>
                        <path d="M1,166.989487 L34.6217407,201 L88,201 L1,113 L1,166.989487 Z M13.2874074,161.424641 L13.2874074,143.328355 L58.0161481,188.570151 L40.1252963,188.570151 L13.2874074,161.424641 Z" id="Fill-2"></path>
                        <path d="M0,98 L87,185 L87,131.625117 L53.3782593,98 L0,98 Z M29.9827778,110.288576 L47.8736296,110.288576 L74.7115185,137.125284 L74.7115185,155.016784 L29.9827778,110.288576 Z" id="Fill-3"></path>
                        <path d="M86.9989259,0 L0,87 L53.3782593,87 L87,53.375547 L87,0 L86.9989259,0 Z M74.7115185,29.982507 L74.7115185,47.8742292 L47.8736296,74.7112716 L29.9827778,74.7112716 L74.7115185,29.982507 Z" id="Fill-4"></path>
                        <path d="M0,328 L87,415 L87,361.625535 L53.3782593,328 L0,328 Z M29.9827778,340.287647 L47.8736296,340.287647 L74.7115185,367.125771 L74.7115185,385.017493 L29.9827778,340.287647 Z" id="Fill-5"></path>
                        <path d="M0,317 L53.3782593,317 L87,283.375965 L87,230 L0,317 Z M74.7115185,259.983216 L74.7115185,277.874716 L47.8736296,304.711424 L29.9827778,304.711424 L74.7115185,259.983216 Z" id="Fill-6"></path>
                    </g>
                </g>
            </g>
        </g>
    </g>
</svg>